<svg width="68" height="67" viewBox="0 0 68 67" fill="none" xmlns="http://www.w3.org/2000/svg">
<circle cx="34" cy="33.5" r="33.5" fill="#E9EBF7"/>
<path d="M18.5 49C17.4 49 16.4587 48.6087 15.676 47.826C14.8933 47.0433 14.5013 46.1013 14.5 45V21C14.5 19.9 14.892 18.9587 15.676 18.176C16.46 17.3933 17.4013 17.0013 18.5 17H50.5C51.6 17 52.542 17.392 53.326 18.176C54.11 18.96 54.5013 19.9013 54.5 21V45C54.5 46.1 54.1087 47.042 53.326 47.826C52.5433 48.61 51.6013 49.0013 50.5 49H18.5ZM18.5 45H50.5V25H18.5V45Z" fill="#8E9FD1"/>
</svg>
