<svg width="68" height="67" viewBox="0 0 68 67" fill="none" xmlns="http://www.w3.org/2000/svg">
<circle cx="34" cy="33.5" r="33.5" fill="#E9EBF7"/>
<g clip-path="url(#clip0_130_2468)">
<path d="M34.5 14.3333C30.8081 14.3333 27.1991 15.4281 24.1293 17.4792C21.0596 19.5304 18.6671 22.4457 17.2542 25.8566C15.8414 29.2675 15.4717 33.0207 16.192 36.6417C16.9123 40.2627 18.6901 43.5888 21.3007 46.1993C23.9112 48.8099 27.2373 50.5877 30.8583 51.308C34.4793 52.0283 38.2325 51.6586 41.6434 50.2458C45.0543 48.8329 47.9696 46.4404 50.0208 43.3707C52.0719 40.3009 53.1667 36.6919 53.1667 33C53.1667 28.0493 51.2 23.3014 47.6993 19.8007C44.1986 16.3 39.4507 14.3333 34.5 14.3333ZM43.425 39.5217C42.2583 43.0217 39.2133 44.0017 36.5417 44.1883V46.5217C36.5417 46.9085 36.388 47.2794 36.1145 47.5529C35.841 47.8264 35.4701 47.98 35.0833 47.98C34.6965 47.98 34.3256 47.8264 34.0521 47.5529C33.7786 47.2794 33.625 46.9085 33.625 46.5217V44.1883C30.9459 43.9371 28.4048 42.8841 26.3333 41.1667C26.1931 41.0357 26.0801 40.8784 26.0007 40.7037C25.9214 40.529 25.8771 40.3404 25.8706 40.1487C25.8641 39.9569 25.8955 39.7658 25.9629 39.5861C26.0302 39.4065 26.1323 39.2419 26.2633 39.1017C26.3943 38.9615 26.5516 38.8485 26.7263 38.7691C26.901 38.6897 27.0896 38.6455 27.2813 38.639C27.4731 38.6325 27.6642 38.6638 27.8439 38.7312C28.0235 38.7986 28.1881 38.9007 28.3283 39.0317C29.8552 40.2612 31.6923 41.0446 33.6367 41.295V33.9683C32.0872 33.7296 30.6049 33.1693 29.285 32.3233C28.1755 31.6275 27.3449 30.5647 26.9378 29.3199C26.5307 28.0751 26.5727 26.727 27.0567 25.51C27.745 23.7483 29.88 21.7417 33.6367 21.415V19.2917C33.6367 18.9049 33.7903 18.534 34.0638 18.2605C34.3373 17.987 34.7082 17.8333 35.095 17.8333C35.4818 17.8333 35.8527 17.987 36.1262 18.2605C36.3997 18.534 36.5533 18.9049 36.5533 19.2917V21.4617C38.6388 21.6927 40.6185 22.5008 42.27 23.795C42.4989 24.0643 42.6222 24.4076 42.617 24.761C42.6117 25.1144 42.4783 25.4539 42.2416 25.7163C42.0048 25.9788 41.6808 26.1463 41.3298 26.1877C40.9788 26.2292 40.6247 26.1417 40.3333 25.9417C39.2194 25.127 37.9205 24.6018 36.5533 24.4133V31.565C37.2533 31.7167 38 31.88 38.7817 32.125C39.6858 32.3505 40.5342 32.7587 41.2746 33.3245C42.015 33.8903 42.6317 34.6018 43.0867 35.415C43.7364 36.6858 43.858 38.1617 43.425 39.5217Z" fill="#8E9FD1"/>
<path d="M37.9067 34.9133C37.44 34.7733 36.985 34.6567 36.5417 34.5633V41.2833C38.875 41.05 40.1234 40.2333 40.66 38.6C40.8389 37.9857 40.7763 37.3263 40.485 36.7567C40.2003 36.2926 39.8254 35.8904 39.3826 35.5738C38.9397 35.2572 38.4379 35.0326 37.9067 34.9133Z" fill="#8E9FD1"/>
<path d="M29.7633 26.56C29.5199 27.1648 29.504 27.8374 29.7185 28.4531C29.933 29.0687 30.3634 29.5858 30.93 29.9083C31.7548 30.4368 32.6738 30.8013 33.6367 30.9817V24.3083C31.1867 24.6 30.055 25.8133 29.7633 26.56Z" fill="#8E9FD1"/>
</g>
<defs>
<clipPath id="clip0_130_2468">
<rect width="42" height="42" fill="white" transform="translate(13.5 12)"/>
</clipPath>
</defs>
</svg>
