<svg width="17" height="16" viewBox="0 0 17 16" fill="none" xmlns="http://www.w3.org/2000/svg">
<g id="bi:search" clip-path="url(#clip0_235_7)">
<path id="Vector" d="M11.9642 10.344C12.9325 9.0227 13.3662 7.3845 13.1785 5.75716C12.9908 4.12982 12.1956 2.63335 10.952 1.56714C9.70833 0.50093 8.10796 -0.0563875 6.47105 0.00668566C4.83413 0.0697588 3.2814 0.748571 2.12348 1.90732C0.965563 3.06606 0.287862 4.61929 0.22596 6.25624C0.164058 7.8932 0.722521 9.49317 1.78962 10.7361C2.85672 11.9789 4.35376 12.7731 5.98123 12.9596C7.6087 13.1461 9.24659 12.7112 10.5672 11.742H10.5662C10.5955 11.782 10.6282 11.8203 10.6642 11.857L14.5142 15.707C14.7017 15.8946 14.9561 16.0001 15.2214 16.0002C15.4866 16.0003 15.7411 15.895 15.9287 15.7075C16.1164 15.52 16.2218 15.2656 16.2219 15.0004C16.222 14.7351 16.1167 14.4806 15.9292 14.293L12.0792 10.443C12.0435 10.4068 12.005 10.3744 11.9642 10.344ZM12.2222 6.50001C12.2222 7.22228 12.0799 7.93748 11.8035 8.60477C11.5271 9.27206 11.122 9.87837 10.6113 10.3891C10.1006 10.8998 9.49426 11.3049 8.82697 11.5813C8.15968 11.8577 7.44448 12 6.72221 12C5.99994 12 5.28474 11.8577 4.61745 11.5813C3.95016 11.3049 3.34385 10.8998 2.83312 10.3891C2.3224 9.87837 1.91727 9.27206 1.64087 8.60477C1.36447 7.93748 1.22221 7.22228 1.22221 6.50001C1.22221 5.04132 1.80167 3.64237 2.83312 2.61092C3.86457 1.57947 5.26352 1.00001 6.72221 1.00001C8.1809 1.00001 9.57985 1.57947 10.6113 2.61092C11.6427 3.64237 12.2222 5.04132 12.2222 6.50001Z" fill="#75757E"/>
</g>
<defs>
<clipPath id="clip0_235_7">
<rect width="16" height="16" fill="white" transform="translate(0.222168)"/>
</clipPath>
</defs>
</svg>
